<?xml version="1.0" encoding="UTF-8"?>
<svg xmlns="http://www.w3.org/2000/svg" xmlns:xlink="http://www.w3.org/1999/xlink" width="18px" height="14px" viewBox="0 0 18 14" version="1.1">
<g id="surface1">
<path style=" stroke:none;fill-rule:nonzero;fill:rgb(100%,100%,100%);fill-opacity:1;" d="M 15.230469 1.171875 C 14.050781 0.617188 12.804688 0.222656 11.527344 0 C 11.351562 0.320312 11.195312 0.652344 11.054688 0.992188 C 9.691406 0.78125 8.304688 0.78125 6.941406 0.992188 C 6.800781 0.652344 6.644531 0.320312 6.46875 0 C 5.1875 0.222656 3.941406 0.621094 2.761719 1.175781 C 0.417969 4.742188 -0.21875 8.222656 0.101562 11.652344 C 1.472656 12.695312 3.007812 13.492188 4.640625 14 C 5.011719 13.492188 5.335938 12.949219 5.617188 12.386719 C 5.085938 12.183594 4.570312 11.929688 4.082031 11.632812 C 4.210938 11.539062 4.335938 11.4375 4.457031 11.34375 C 7.335938 12.734375 10.664062 12.734375 13.542969 11.34375 C 13.664062 11.445312 13.789062 11.542969 13.917969 11.632812 C 13.425781 11.929688 12.914062 12.183594 12.382812 12.386719 C 12.660156 12.953125 12.988281 13.492188 13.355469 14 C 14.988281 13.492188 16.527344 12.699219 17.898438 11.65625 C 18.273438 7.675781 17.261719 4.230469 15.230469 1.171875 Z M 6.019531 9.542969 C 5.132812 9.542969 4.402344 8.71875 4.402344 7.699219 C 4.402344 6.683594 5.105469 5.847656 6.015625 5.847656 C 6.921875 5.847656 7.648438 6.683594 7.632812 7.699219 C 7.617188 8.71875 6.921875 9.542969 6.019531 9.542969 Z M 11.980469 9.542969 C 11.09375 9.542969 10.367188 8.71875 10.367188 7.699219 C 10.367188 6.683594 11.074219 5.847656 11.980469 5.847656 C 12.890625 5.847656 13.613281 6.683594 13.597656 7.699219 C 13.582031 8.71875 12.882812 9.542969 11.980469 9.542969 Z M 11.980469 9.542969 "/>
</g>
</svg>
