<svg version="1.2" xmlns="http://www.w3.org/2000/svg" viewBox="0 0 652 720" width="652" height="720">
  <style>
    .s0 {
      fill: #ffffff
    }
  </style>
  <path id="face 1" class="s0" d="m30 160 l 90 -112.7 182.6 -13 110.9 92.2 -71.8 120.4-201.5 20.8z" />
  <path id="side 1" class="s0" d="m30 173 l 40 180 48 -60 56 48 76 -22 24 -24 72 -24 1 -10 -209 21z" />
  <path id="face 2" class="s0" d="m366 380 l 202 -21 56 -134 -125 -99 -76 5 -1 30 -70 140 -60 5z" />
  <path id="side 2" class="s0" d="m290 316 l 75 73 207 -22 50 -125 -24 140 -52 132 -100 16 -24 -120 -50 -1 -50 -50z" />
  <path id="face 3" class="s0" d="m120 321 l 56 48 100 -24 92 80 43-3-48 114-203 20-117-129z" />
  <path id="side 3" class="s0" d="m43 444 l 114 127 209-21 46-108 v77 l -49 118-191 22-110-123z" />
</svg>